<svg width="16" height="19" viewBox="0 0 16 19" fill="none" xmlns="http://www.w3.org/2000/svg">
    <path d="M7.75981 4.6C7.75981 4.6 7.65981 3 8.65981 1.6L11.4598 0C11.4598 0 11.5598 1.6 10.5598 3L7.75981 4.6ZM13.1598 10.2C13.1598 8.7 13.9598 7.4 15.1598 6.6L14.2598 5.7C13.7598 5.4 13.1598 5 11.8598 5C10.4598 5 9.45981 5.9 8.15981 5.9C6.85981 5.9 5.95981 5.1 5.05981 5C4.35981 5 3.65981 5 2.95981 5.3C2.45981 5.5 1.75981 6 1.35981 6.5C0.759808 7.1 0.159808 8.4 0.0598075 9.6C-0.0401925 10.8 -0.0401922 11.7 0.259808 12.8C0.459808 13.7 0.859808 14.6 1.25981 15.4C1.55981 16 1.85981 16.6 2.25981 17.2C2.55981 17.6 2.95981 18 3.35981 18.3C3.65981 18.5 3.95981 18.7 4.35981 18.9C4.55981 18.9 4.85981 19 5.15981 19C5.75981 18.9 6.75981 18.1 7.55981 17.9C7.95981 17.8 8.35981 17.8 8.85981 17.9C9.55981 18 10.2598 18.8 11.0598 18.9C11.6598 19 12.2598 18.9 12.7598 18.6C13.1598 18.4 13.4598 18.1 13.7598 17.7C14.1598 17.3 14.4598 16.8 14.7598 16.4C15.1598 15.7 15.6598 14.9 15.8598 14.1C14.2598 13.5 13.1598 12 13.1598 10.2Z" fill="black"/>
</svg>
